<!-- RISCVML Mascot: Count Rusty von Risc-V — v3 (Lightsaber Pinchers)
     Nickname: "Rusty-V"
     A robotic Rust crab with neural network brain dome,
     RISC-V chip chest, and dual lightsaber energy pinchers.
     Designed for RISC-V Summit Europe 2026 submission.
     Co-Contributed-By: Claude Opus 4.6 -->
<svg xmlns="http://www.w3.org/2000/svg" viewBox="0 0 800 900" width="800" height="900">
  <title>Count Rusty von Risc-V - RISCVML Mascot</title>
  <desc>Count Rusty von Risc-V (nickname "Rusty-V"): The RISCVML mascot — a robotic rust-colored crab with a purple transparent neural network brain dome, glowing teal eyes, RISC-V chip die chest with green V emblem, Rust gear shoulder emblems, and dual lightsaber-style energy pinchers — green (RISC-V) on the left and purple (ML) on the right — with 5-layer glow effects on a dark background.</desc>

  <defs>
    <!-- ===== GRADIENTS ===== -->

    <!-- Metallic copper body gradient -->
    <linearGradient id="bodyMetal" x1="0" y1="0" x2="0.3" y2="1">
      <stop offset="0%" stop-color="#E07030"/>
      <stop offset="25%" stop-color="#D4652A"/>
      <stop offset="50%" stop-color="#B7410E"/>
      <stop offset="75%" stop-color="#993A0E"/>
      <stop offset="100%" stop-color="#B7410E"/>
    </linearGradient>

    <!-- Brain dome — purple radial with transparency -->
    <radialGradient id="domeGrad" cx="0.5" cy="0.35" r="0.65">
      <stop offset="0%" stop-color="#E1BEE7" stop-opacity="0.25"/>
      <stop offset="40%" stop-color="#CE93D8" stop-opacity="0.35"/>
      <stop offset="80%" stop-color="#9C27B0" stop-opacity="0.45"/>
      <stop offset="100%" stop-color="#6A1B9A" stop-opacity="0.55"/>
    </radialGradient>

    <!-- Eye iris — teal radial glow -->
    <radialGradient id="eyeGrad" cx="0.5" cy="0.5" r="0.5">
      <stop offset="0%" stop-color="#FFFFFF"/>
      <stop offset="25%" stop-color="#B2EBF2"/>
      <stop offset="60%" stop-color="#4DD0E1"/>
      <stop offset="100%" stop-color="#00BCD4"/>
    </radialGradient>

    <!-- Floor shadow -->
    <radialGradient id="shadowGrad" cx="0.5" cy="0.5" r="0.5">
      <stop offset="0%" stop-color="#000000" stop-opacity="0.3"/>
      <stop offset="100%" stop-color="#0D0D1A" stop-opacity="0"/>
    </radialGradient>

    <!-- ===== FILTERS ===== -->

    <!-- Large glow blur for outer saber haze -->
    <filter id="glowBig" x="-100%" y="-100%" width="300%" height="300%">
      <feGaussianBlur stdDeviation="10"/>
    </filter>

    <!-- Medium glow blur for saber layer 4 -->
    <filter id="glowMed" x="-100%" y="-100%" width="300%" height="300%">
      <feGaussianBlur stdDeviation="5"/>
    </filter>

    <!-- Eye glow halo -->
    <filter id="eyeBlur" x="-100%" y="-100%" width="300%" height="300%">
      <feGaussianBlur stdDeviation="6"/>
    </filter>

    <!-- Signal wave / antenna tip glow -->
    <filter id="sigBlur" x="-100%" y="-100%" width="300%" height="300%">
      <feGaussianBlur stdDeviation="3"/>
    </filter>

    <!-- ===== PATTERNS ===== -->

    <!-- IC trace grid for chip die -->
    <pattern id="traces" width="16" height="16" patternUnits="userSpaceOnUse">
      <rect width="16" height="16" fill="none"/>
      <line x1="8" y1="0" x2="8" y2="16" stroke="#2E7D32" stroke-width="0.5" opacity="0.4"/>
      <line x1="0" y1="8" x2="16" y2="8" stroke="#2E7D32" stroke-width="0.5" opacity="0.4"/>
      <rect x="6" y="6" width="4" height="4" fill="none" stroke="#2E7D32" stroke-width="0.3" opacity="0.25"/>
    </pattern>
  </defs>

  <!-- ============================================================ -->
  <!-- BACKGROUND                                                    -->
  <!-- ============================================================ -->
  <rect width="800" height="900" fill="#0D0D1A"/>

  <!-- Subtle ambient saber light cast on nearby background -->
  <ellipse cx="100" cy="280" rx="60" ry="80" fill="#4CAF50" opacity="0.06"/>
  <ellipse cx="700" cy="280" rx="60" ry="80" fill="#9C27B0" opacity="0.06"/>

  <!-- Floor shadow beneath crab -->
  <ellipse cx="400" cy="720" rx="250" ry="25" fill="url(#shadowGrad)"/>

  <!-- ============================================================ -->
  <!-- LEGS (rendered behind body)                                   -->
  <!-- ============================================================ -->
  <g id="legs" stroke-linecap="round" fill="none">
    <!-- Left legs (3) -->
    <g stroke="url(#bodyMetal)">
      <path d="M 290,530 L 230,575 L 185,630" stroke-width="9"/>
      <circle cx="230" cy="575" r="6" fill="#8B3000" stroke="#C75B20" stroke-width="1.5"/>
      <circle cx="185" cy="630" r="5" fill="#C75B20"/>

      <path d="M 275,560 L 210,610 L 165,665" stroke-width="8"/>
      <circle cx="210" cy="610" r="6" fill="#8B3000" stroke="#C75B20" stroke-width="1.5"/>
      <circle cx="165" cy="665" r="5" fill="#C75B20"/>

      <path d="M 270,585 L 210,640 L 175,695" stroke-width="7"/>
      <circle cx="210" cy="640" r="5" fill="#8B3000" stroke="#C75B20" stroke-width="1.5"/>
      <circle cx="175" cy="695" r="4" fill="#C75B20"/>
    </g>

    <!-- Right legs (3, mirrored) -->
    <g stroke="url(#bodyMetal)">
      <path d="M 510,530 L 570,575 L 615,630" stroke-width="9"/>
      <circle cx="570" cy="575" r="6" fill="#8B3000" stroke="#C75B20" stroke-width="1.5"/>
      <circle cx="615" cy="630" r="5" fill="#C75B20"/>

      <path d="M 525,560 L 590,610 L 635,665" stroke-width="8"/>
      <circle cx="590" cy="610" r="6" fill="#8B3000" stroke="#C75B20" stroke-width="1.5"/>
      <circle cx="635" cy="665" r="5" fill="#C75B20"/>

      <path d="M 530,585 L 590,640 L 625,695" stroke-width="7"/>
      <circle cx="590" cy="640" r="5" fill="#8B3000" stroke="#C75B20" stroke-width="1.5"/>
      <circle cx="625" cy="695" r="4" fill="#C75B20"/>
    </g>
  </g>

  <!-- ============================================================ -->
  <!-- BODY SHELL (main carapace)                                    -->
  <!-- ============================================================ -->
  <g id="body">
    <!-- Crab-shaped carapace — wider top, rounder bottom -->
    <path d="M 245,490
             C 245,415 310,385 400,385
             C 490,385 555,415 555,490
             C 555,565 490,605 400,605
             C 310,605 245,565 245,490 Z"
          fill="url(#bodyMetal)" stroke="#8B3000" stroke-width="2.5"/>

    <!-- Metallic highlight along top of shell -->
    <path d="M 290,430 Q 400,408 510,430"
          fill="none" stroke="#E0854A" stroke-width="2" opacity="0.5"/>

    <!-- Shell segment ridges -->
    <path d="M 280,465 Q 400,440 520,465" fill="none" stroke="#D4652A" stroke-width="1.5" opacity="0.4"/>
    <path d="M 260,500 Q 400,475 540,500" fill="none" stroke="#D4652A" stroke-width="1.5" opacity="0.4"/>
    <path d="M 270,535 Q 400,510 530,535" fill="none" stroke="#8B3000" stroke-width="1" opacity="0.3"/>

    <!-- ===== CHEST — RISC-V CHIP DIE ===== -->
    <g id="chip">
      <!-- Die substrate -->
      <rect x="348" y="440" width="104" height="85" rx="4"
            fill="#0A0A1A" stroke="#2E7D32" stroke-width="1.5"/>
      <!-- IC trace overlay -->
      <rect x="348" y="440" width="104" height="85" rx="4" fill="url(#traces)"/>

      <!-- IC Pins — top row -->
      <g fill="#B0B0B0">
        <rect x="360" y="433" width="6" height="9" rx="1"/>
        <rect x="374" y="433" width="6" height="9" rx="1"/>
        <rect x="388" y="433" width="6" height="9" rx="1"/>
        <rect x="402" y="433" width="6" height="9" rx="1"/>
        <rect x="416" y="433" width="6" height="9" rx="1"/>
        <rect x="430" y="433" width="6" height="9" rx="1"/>
      </g>
      <!-- IC Pins — bottom row -->
      <g fill="#B0B0B0">
        <rect x="360" y="523" width="6" height="9" rx="1"/>
        <rect x="374" y="523" width="6" height="9" rx="1"/>
        <rect x="388" y="523" width="6" height="9" rx="1"/>
        <rect x="402" y="523" width="6" height="9" rx="1"/>
        <rect x="416" y="523" width="6" height="9" rx="1"/>
        <rect x="430" y="523" width="6" height="9" rx="1"/>
      </g>
      <!-- IC Pins — left column -->
      <g fill="#B0B0B0">
        <rect x="341" y="452" width="9" height="6" rx="1"/>
        <rect x="341" y="468" width="9" height="6" rx="1"/>
        <rect x="341" y="484" width="9" height="6" rx="1"/>
        <rect x="341" y="500" width="9" height="6" rx="1"/>
        <rect x="341" y="516" width="9" height="6" rx="1"/>
      </g>
      <!-- IC Pins — right column -->
      <g fill="#B0B0B0">
        <rect x="450" y="452" width="9" height="6" rx="1"/>
        <rect x="450" y="468" width="9" height="6" rx="1"/>
        <rect x="450" y="484" width="9" height="6" rx="1"/>
        <rect x="450" y="500" width="9" height="6" rx="1"/>
        <rect x="450" y="516" width="9" height="6" rx="1"/>
      </g>

      <!-- Green "V" emblem -->
      <text x="400" y="497" text-anchor="middle"
            font-family="'Arial Black', 'Impact', sans-serif"
            font-size="38" font-weight="bold" fill="#4CAF50" opacity="0.85">V</text>
    </g>
  </g>

  <!-- ============================================================ -->
  <!-- ARMS                                                          -->
  <!-- ============================================================ -->
  <g id="arms" stroke-linecap="round" fill="none">
    <!-- Left arm: shoulder → elbow → wrist -->
    <path d="M 260,445 L 190,395 L 130,330" stroke="url(#bodyMetal)" stroke-width="14"/>
    <path d="M 260,445 L 190,395 L 130,330" stroke="#8B3000" stroke-width="14" opacity="0.15"/>
    <circle cx="190" cy="395" r="9" fill="#8B3000" stroke="#C75B20" stroke-width="2"/>

    <!-- Right arm: shoulder → elbow → wrist -->
    <path d="M 540,445 L 610,395 L 670,330" stroke="url(#bodyMetal)" stroke-width="14"/>
    <path d="M 540,445 L 610,395 L 670,330" stroke="#8B3000" stroke-width="14" opacity="0.15"/>
    <circle cx="610" cy="395" r="9" fill="#8B3000" stroke="#C75B20" stroke-width="2"/>
  </g>

  <!-- ============================================================ -->
  <!-- LEFT LIGHTSABER — GREEN (RISC-V)                              -->
  <!-- Dual forking blades mimic an open crab pincher                -->
  <!-- ============================================================ -->
  <g id="greenSaber" transform="translate(130,330) rotate(-50)">

    <!-- Hilt -->
    <g id="greenHilt">
      <!-- Pommel cap -->
      <rect x="-9" y="24" width="18" height="10" rx="3" fill="#555" stroke="#777" stroke-width="1"/>
      <!-- Crystal window in pommel -->
      <rect x="-3.5" y="27" width="7" height="4" rx="1" fill="#4CAF50" opacity="0.5"/>
      <!-- Main grip body -->
      <rect x="-8" y="-12" width="16" height="38" rx="2" fill="#3A3A3A" stroke="#555" stroke-width="1"/>
      <!-- Grip ridges -->
      <line x1="-7" y1="-2" x2="7" y2="-2" stroke="#4A4A4A" stroke-width="2"/>
      <line x1="-7" y1="4" x2="7" y2="4" stroke="#4A4A4A" stroke-width="2"/>
      <line x1="-7" y1="10" x2="7" y2="10" stroke="#4A4A4A" stroke-width="2"/>
      <line x1="-7" y1="16" x2="7" y2="16" stroke="#4A4A4A" stroke-width="2"/>
      <!-- Emitter ring -->
      <rect x="-10" y="-20" width="20" height="10" rx="3" fill="#666" stroke="#888" stroke-width="1"/>
      <!-- Emitter notches -->
      <rect x="-6" y="-22" width="5" height="3" rx="1" fill="#444"/>
      <rect x="1" y="-22" width="5" height="3" rx="1" fill="#444"/>
      <!-- Power button -->
      <circle cx="10" cy="8" r="3" fill="#2E7D32" stroke="#4CAF50" stroke-width="0.8"/>
      <circle cx="10" cy="8" r="1.5" fill="#4CAF50" opacity="0.8"/>
    </g>

    <!-- Dual forking blades — 5-layer glow each -->
    <g id="greenBlades">
      <!-- === LEFT BLADE (forks left from emitter) === -->
      <!-- Layer 5: outermost haze -->
      <line x1="-2" y1="-20" x2="-30" y2="-155" stroke="#4CAF50" stroke-width="24" opacity="0.12" stroke-linecap="round"/>
      <!-- Layer 4 -->
      <line x1="-2" y1="-20" x2="-30" y2="-155" stroke="#4CAF50" stroke-width="16" opacity="0.2" stroke-linecap="round"/>
      <!-- Layer 3 -->
      <line x1="-2" y1="-20" x2="-30" y2="-155" stroke="#66BB6A" stroke-width="9" opacity="0.4" stroke-linecap="round"/>
      <!-- Layer 2 -->
      <line x1="-2" y1="-20" x2="-30" y2="-155" stroke="#A5D6A7" stroke-width="5" opacity="0.7" stroke-linecap="round"/>
      <!-- Layer 1: white-hot core -->
      <line x1="-2" y1="-20" x2="-30" y2="-155" stroke="#FFFFFF" stroke-width="2.5" opacity="0.95" stroke-linecap="round"/>

      <!-- === RIGHT BLADE (forks right from emitter) === -->
      <line x1="2" y1="-20" x2="30" y2="-155" stroke="#4CAF50" stroke-width="24" opacity="0.12" stroke-linecap="round"/>
      <line x1="2" y1="-20" x2="30" y2="-155" stroke="#4CAF50" stroke-width="16" opacity="0.2" stroke-linecap="round"/>
      <line x1="2" y1="-20" x2="30" y2="-155" stroke="#66BB6A" stroke-width="9" opacity="0.4" stroke-linecap="round"/>
      <line x1="2" y1="-20" x2="30" y2="-155" stroke="#A5D6A7" stroke-width="5" opacity="0.7" stroke-linecap="round"/>
      <line x1="2" y1="-20" x2="30" y2="-155" stroke="#FFFFFF" stroke-width="2.5" opacity="0.95" stroke-linecap="round"/>
    </g>
  </g>

  <!-- ============================================================ -->
  <!-- RIGHT LIGHTSABER — PURPLE (ML)                                -->
  <!-- Mirrored construction of green saber                          -->
  <!-- ============================================================ -->
  <g id="purpleSaber" transform="translate(670,330) rotate(50)">

    <!-- Hilt (mirrored power button side) -->
    <g id="purpleHilt">
      <rect x="-9" y="24" width="18" height="10" rx="3" fill="#555" stroke="#777" stroke-width="1"/>
      <rect x="-3.5" y="27" width="7" height="4" rx="1" fill="#9C27B0" opacity="0.5"/>
      <rect x="-8" y="-12" width="16" height="38" rx="2" fill="#3A3A3A" stroke="#555" stroke-width="1"/>
      <line x1="-7" y1="-2" x2="7" y2="-2" stroke="#4A4A4A" stroke-width="2"/>
      <line x1="-7" y1="4" x2="7" y2="4" stroke="#4A4A4A" stroke-width="2"/>
      <line x1="-7" y1="10" x2="7" y2="10" stroke="#4A4A4A" stroke-width="2"/>
      <line x1="-7" y1="16" x2="7" y2="16" stroke="#4A4A4A" stroke-width="2"/>
      <rect x="-10" y="-20" width="20" height="10" rx="3" fill="#666" stroke="#888" stroke-width="1"/>
      <rect x="-6" y="-22" width="5" height="3" rx="1" fill="#444"/>
      <rect x="1" y="-22" width="5" height="3" rx="1" fill="#444"/>
      <circle cx="-10" cy="8" r="3" fill="#6A1B9A" stroke="#9C27B0" stroke-width="0.8"/>
      <circle cx="-10" cy="8" r="1.5" fill="#9C27B0" opacity="0.8"/>
    </g>

    <!-- Dual forking blades — 5-layer glow each -->
    <g id="purpleBlades">
      <!-- === LEFT BLADE === -->
      <line x1="-2" y1="-20" x2="-30" y2="-155" stroke="#9C27B0" stroke-width="24" opacity="0.12" stroke-linecap="round"/>
      <line x1="-2" y1="-20" x2="-30" y2="-155" stroke="#9C27B0" stroke-width="16" opacity="0.2" stroke-linecap="round"/>
      <line x1="-2" y1="-20" x2="-30" y2="-155" stroke="#BA68C8" stroke-width="9" opacity="0.4" stroke-linecap="round"/>
      <line x1="-2" y1="-20" x2="-30" y2="-155" stroke="#E1BEE7" stroke-width="5" opacity="0.7" stroke-linecap="round"/>
      <line x1="-2" y1="-20" x2="-30" y2="-155" stroke="#FFFFFF" stroke-width="2.5" opacity="0.95" stroke-linecap="round"/>

      <!-- === RIGHT BLADE === -->
      <line x1="2" y1="-20" x2="30" y2="-155" stroke="#9C27B0" stroke-width="24" opacity="0.12" stroke-linecap="round"/>
      <line x1="2" y1="-20" x2="30" y2="-155" stroke="#9C27B0" stroke-width="16" opacity="0.2" stroke-linecap="round"/>
      <line x1="2" y1="-20" x2="30" y2="-155" stroke="#BA68C8" stroke-width="9" opacity="0.4" stroke-linecap="round"/>
      <line x1="2" y1="-20" x2="30" y2="-155" stroke="#E1BEE7" stroke-width="5" opacity="0.7" stroke-linecap="round"/>
      <line x1="2" y1="-20" x2="30" y2="-155" stroke="#FFFFFF" stroke-width="2.5" opacity="0.95" stroke-linecap="round"/>
    </g>
  </g>

  <!-- ============================================================ -->
  <!-- SHOULDER GEARS — Rust "R" emblem                              -->
  <!-- ============================================================ -->

  <!-- Left shoulder gear -->
  <g id="leftGear" transform="translate(260,445)">
    <circle r="20" fill="#A0522D" stroke="#8B3000" stroke-width="2"/>
    <!-- 8 gear teeth evenly spaced via rotation -->
    <g fill="#A0522D" stroke="#8B3000" stroke-width="1">
      <rect x="-4" y="-25" width="8" height="9" rx="2"/>
      <rect x="-4" y="-25" width="8" height="9" rx="2" transform="rotate(45)"/>
      <rect x="-4" y="-25" width="8" height="9" rx="2" transform="rotate(90)"/>
      <rect x="-4" y="-25" width="8" height="9" rx="2" transform="rotate(135)"/>
      <rect x="-4" y="-25" width="8" height="9" rx="2" transform="rotate(180)"/>
      <rect x="-4" y="-25" width="8" height="9" rx="2" transform="rotate(225)"/>
      <rect x="-4" y="-25" width="8" height="9" rx="2" transform="rotate(270)"/>
      <rect x="-4" y="-25" width="8" height="9" rx="2" transform="rotate(315)"/>
    </g>
    <circle r="13" fill="#8B3000"/>
    <text x="0" y="5.5" text-anchor="middle"
          font-family="'Arial Black', sans-serif" font-size="14" font-weight="bold"
          fill="#D4652A">R</text>
  </g>

  <!-- Right shoulder gear -->
  <g id="rightGear" transform="translate(540,445)">
    <circle r="20" fill="#A0522D" stroke="#8B3000" stroke-width="2"/>
    <g fill="#A0522D" stroke="#8B3000" stroke-width="1">
      <rect x="-4" y="-25" width="8" height="9" rx="2"/>
      <rect x="-4" y="-25" width="8" height="9" rx="2" transform="rotate(45)"/>
      <rect x="-4" y="-25" width="8" height="9" rx="2" transform="rotate(90)"/>
      <rect x="-4" y="-25" width="8" height="9" rx="2" transform="rotate(135)"/>
      <rect x="-4" y="-25" width="8" height="9" rx="2" transform="rotate(180)"/>
      <rect x="-4" y="-25" width="8" height="9" rx="2" transform="rotate(225)"/>
      <rect x="-4" y="-25" width="8" height="9" rx="2" transform="rotate(270)"/>
      <rect x="-4" y="-25" width="8" height="9" rx="2" transform="rotate(315)"/>
    </g>
    <circle r="13" fill="#8B3000"/>
    <text x="0" y="5.5" text-anchor="middle"
          font-family="'Arial Black', sans-serif" font-size="14" font-weight="bold"
          fill="#D4652A">R</text>
  </g>

  <!-- ============================================================ -->
  <!-- HEAD                                                          -->
  <!-- ============================================================ -->
  <g id="head">
    <!-- Neck connector -->
    <rect x="372" y="370" width="56" height="25" rx="8"
          fill="url(#bodyMetal)" stroke="#8B3000" stroke-width="1.5"/>

    <!-- Head base -->
    <ellipse cx="400" cy="330" rx="95" ry="65"
             fill="url(#bodyMetal)" stroke="#8B3000" stroke-width="2.5"/>

    <!-- Head metallic highlight -->
    <path d="M 335,300 Q 400,280 465,300"
          fill="none" stroke="#E0854A" stroke-width="1.5" opacity="0.4"/>

    <!-- ===== BRAIN DOME ===== -->
    <ellipse cx="400" cy="300" rx="72" ry="52"
             fill="url(#domeGrad)" stroke="#CE93D8" stroke-width="1.5"/>

    <!-- Glass reflection highlight on dome -->
    <ellipse cx="380" cy="280" rx="35" ry="15"
             fill="white" opacity="0.06" transform="rotate(-15,380,280)"/>

    <!-- Neural network: 4 layers with weighted connections -->
    <g id="neuralNet" opacity="0.85">
      <!-- Layer 1 — input (3 nodes) -->
      <circle cx="352" cy="280" r="4.5" fill="#E1BEE7"/>
      <circle cx="352" cy="298" r="4.5" fill="#E1BEE7"/>
      <circle cx="352" cy="316" r="4.5" fill="#E1BEE7"/>

      <!-- Layer 2 — hidden (4 nodes) -->
      <circle cx="382" cy="272" r="4" fill="#CE93D8"/>
      <circle cx="382" cy="290" r="4" fill="#CE93D8"/>
      <circle cx="382" cy="308" r="4" fill="#CE93D8"/>
      <circle cx="382" cy="324" r="4" fill="#CE93D8"/>

      <!-- Layer 3 — hidden (4 nodes) -->
      <circle cx="418" cy="272" r="4" fill="#CE93D8"/>
      <circle cx="418" cy="290" r="4" fill="#CE93D8"/>
      <circle cx="418" cy="308" r="4" fill="#CE93D8"/>
      <circle cx="418" cy="324" r="4" fill="#CE93D8"/>

      <!-- Layer 4 — output (2 nodes) -->
      <circle cx="448" cy="285" r="4.5" fill="#E1BEE7"/>
      <circle cx="448" cy="305" r="4.5" fill="#E1BEE7"/>

      <!-- Weighted connections — varying stroke-width = weight magnitude -->
      <g stroke="#CE93D8" fill="none">
        <!-- L1 → L2 -->
        <line x1="357" y1="280" x2="378" y2="272" stroke-width="1.2" opacity="0.6"/>
        <line x1="357" y1="280" x2="378" y2="290" stroke-width="0.7" opacity="0.35"/>
        <line x1="357" y1="280" x2="378" y2="308" stroke-width="1.0" opacity="0.5"/>
        <line x1="357" y1="298" x2="378" y2="272" stroke-width="0.7" opacity="0.35"/>
        <line x1="357" y1="298" x2="378" y2="290" stroke-width="1.2" opacity="0.6"/>
        <line x1="357" y1="298" x2="378" y2="308" stroke-width="0.8" opacity="0.4"/>
        <line x1="357" y1="298" x2="378" y2="324" stroke-width="1.0" opacity="0.5"/>
        <line x1="357" y1="316" x2="378" y2="290" stroke-width="0.8" opacity="0.4"/>
        <line x1="357" y1="316" x2="378" y2="308" stroke-width="1.2" opacity="0.6"/>
        <line x1="357" y1="316" x2="378" y2="324" stroke-width="1.0" opacity="0.5"/>

        <!-- L2 → L3 -->
        <line x1="386" y1="272" x2="414" y2="272" stroke-width="1.0" opacity="0.5"/>
        <line x1="386" y1="272" x2="414" y2="290" stroke-width="0.7" opacity="0.35"/>
        <line x1="386" y1="290" x2="414" y2="272" stroke-width="0.8" opacity="0.4"/>
        <line x1="386" y1="290" x2="414" y2="290" stroke-width="1.2" opacity="0.6"/>
        <line x1="386" y1="290" x2="414" y2="308" stroke-width="0.7" opacity="0.35"/>
        <line x1="386" y1="308" x2="414" y2="290" stroke-width="0.7" opacity="0.35"/>
        <line x1="386" y1="308" x2="414" y2="308" stroke-width="1.0" opacity="0.5"/>
        <line x1="386" y1="308" x2="414" y2="324" stroke-width="1.2" opacity="0.6"/>
        <line x1="386" y1="324" x2="414" y2="308" stroke-width="0.8" opacity="0.4"/>
        <line x1="386" y1="324" x2="414" y2="324" stroke-width="1.0" opacity="0.5"/>

        <!-- L3 → L4 -->
        <line x1="422" y1="272" x2="444" y2="285" stroke-width="1.2" opacity="0.6"/>
        <line x1="422" y1="272" x2="444" y2="305" stroke-width="0.7" opacity="0.35"/>
        <line x1="422" y1="290" x2="444" y2="285" stroke-width="1.0" opacity="0.5"/>
        <line x1="422" y1="290" x2="444" y2="305" stroke-width="0.8" opacity="0.4"/>
        <line x1="422" y1="308" x2="444" y2="285" stroke-width="0.7" opacity="0.35"/>
        <line x1="422" y1="308" x2="444" y2="305" stroke-width="1.2" opacity="0.6"/>
        <line x1="422" y1="324" x2="444" y2="305" stroke-width="1.0" opacity="0.5"/>
      </g>
    </g>

    <!-- ===== EYES ===== -->
    <!-- Teal glow halos behind eyes -->
    <circle cx="362" cy="345" r="20" fill="#00BCD4" opacity="0.12" filter="url(#eyeBlur)"/>
    <circle cx="438" cy="345" r="20" fill="#00BCD4" opacity="0.12" filter="url(#eyeBlur)"/>

    <!-- Eye sockets -->
    <ellipse cx="362" cy="345" rx="18" ry="15" fill="#0A0A1A" stroke="#00838F" stroke-width="1.5"/>
    <ellipse cx="438" cy="345" rx="18" ry="15" fill="#0A0A1A" stroke="#00838F" stroke-width="1.5"/>

    <!-- Irises -->
    <circle cx="362" cy="345" r="11" fill="url(#eyeGrad)"/>
    <circle cx="438" cy="345" r="11" fill="url(#eyeGrad)"/>

    <!-- Pupils -->
    <circle cx="362" cy="345" r="4.5" fill="#004D40"/>
    <circle cx="438" cy="345" r="4.5" fill="#004D40"/>

    <!-- Main eye highlights -->
    <circle cx="367" cy="340" r="3" fill="white" opacity="0.85"/>
    <circle cx="443" cy="340" r="3" fill="white" opacity="0.85"/>

    <!-- Saber color reflections in eyes -->
    <circle cx="357" cy="349" r="2" fill="#4CAF50" opacity="0.35"/>
    <circle cx="443" cy="349" r="2" fill="#9C27B0" opacity="0.35"/>

    <!-- Friendly smile -->
    <path d="M 378,365 Q 400,378 422,365"
          fill="none" stroke="#C75B20" stroke-width="2.5" stroke-linecap="round"/>
  </g>

  <!-- ============================================================ -->
  <!-- ANTENNA — RISC-V green broadcasting tip                       -->
  <!-- ============================================================ -->
  <g id="antenna">
    <!-- Antenna base ring -->
    <ellipse cx="400" cy="255" rx="7" ry="4" fill="#8B3000" stroke="#C75B20" stroke-width="1"/>

    <!-- Antenna shaft -->
    <line x1="400" y1="255" x2="400" y2="185" stroke="#8B3000" stroke-width="3.5"/>
    <line x1="400" y1="255" x2="400" y2="185" stroke="#B7410E" stroke-width="2" opacity="0.5"/>

    <!-- Broadcasting tip — green with glow -->
    <circle cx="400" cy="180" r="12" fill="#4CAF50" opacity="0.15" filter="url(#sigBlur)"/>
    <circle cx="400" cy="180" r="7" fill="#4CAF50"/>
    <circle cx="400" cy="180" r="4" fill="#66BB6A"/>
    <circle cx="400" cy="180" r="2" fill="#A5D6A7"/>

    <!-- Signal wave arcs — 3 concentric pairs -->
    <g fill="none" stroke="#4CAF50" stroke-linecap="round">
      <!-- Inner waves -->
      <path d="M 384,168 Q 376,158 384,148" stroke-width="2" opacity="0.6"/>
      <path d="M 416,168 Q 424,158 416,148" stroke-width="2" opacity="0.6"/>
      <!-- Middle waves -->
      <path d="M 378,172 Q 366,158 378,142" stroke-width="1.5" opacity="0.4"/>
      <path d="M 422,172 Q 434,158 422,142" stroke-width="1.5" opacity="0.4"/>
      <!-- Outer waves -->
      <path d="M 372,176 Q 356,158 372,136" stroke-width="1" opacity="0.25"/>
      <path d="M 428,176 Q 444,158 428,136" stroke-width="1" opacity="0.25"/>
    </g>
  </g>

  <!-- ============================================================ -->
  <!-- NAMEPLATE — Color-coded "RISCVML"                             -->
  <!-- ============================================================ -->
  <g id="nameplate">
    <!-- Plate background -->
    <rect x="275" y="780" width="250" height="55" rx="12"
          fill="#111122" stroke="#444" stroke-width="2"/>
    <!-- Inner border accent -->
    <rect x="279" y="784" width="242" height="47" rx="10"
          fill="none" stroke="#333" stroke-width="1"/>

    <!-- RISC (rust orange) + V (green) + ML (purple) — separate text elements for renderer compatibility -->
    <text x="315" y="817" font-family="sans-serif" font-size="30" font-weight="bold" fill="#D4652A">RISC</text>
    <text x="393" y="817" font-family="sans-serif" font-size="30" font-weight="bold" fill="#4CAF50">V</text>
    <text x="416" y="817" font-family="sans-serif" font-size="30" font-weight="bold" fill="#9C27B0">ML</text>
  </g>

</svg>
